<svg width="73" height="73" viewBox="0 0 73 73" fill="none" xmlns="http://www.w3.org/2000/svg">
<path id="Vector" d="M54.75 54.75H60.8333V73H12.1667V54.75H18.25V60.8333H54.75V54.75ZM72.6715 40.2838C72.8601 41.026 73 41.7864 73 42.5833C73 43.7816 72.764 44.9682 72.3054 46.0753C71.8468 47.1824 71.1747 48.1884 70.3274 49.0357C69.48 49.883 68.4741 50.5552 67.367 51.0137C66.2599 51.4723 65.0733 51.7083 63.875 51.7083C62.6767 51.7083 61.4901 51.4723 60.383 51.0137C59.2759 50.5552 58.27 49.883 57.4226 49.0357C56.5753 48.1884 55.9032 47.1824 55.4446 46.0753C54.986 44.9682 54.75 43.7816 54.75 42.5833C54.75 45.0034 53.7886 47.3244 52.0774 49.0357C50.3661 50.747 48.0451 51.7083 45.625 51.7083C43.2049 51.7083 40.8839 50.747 39.1726 49.0357C37.4614 47.3244 36.5 45.0034 36.5 42.5833C36.5 45.0034 35.5386 47.3244 33.8274 49.0357C32.1161 50.747 29.7951 51.7083 27.375 51.7083C24.9549 51.7083 22.6339 50.747 20.9226 49.0357C19.2114 47.3244 18.25 45.0034 18.25 42.5833C18.25 43.7816 18.014 44.9682 17.5554 46.0753C17.0968 47.1824 16.4247 48.1884 15.5774 49.0357C14.73 49.883 13.7241 50.5552 12.617 51.0137C11.5099 51.4723 10.3233 51.7083 9.125 51.7083C7.92669 51.7083 6.74011 51.4723 5.63301 51.0137C4.52592 50.5552 3.51999 49.883 2.67265 49.0357C1.82532 48.1884 1.15317 47.1824 0.6946 46.0753C0.236026 44.9682 -1.78562e-08 43.7816 0 42.5833C0 41.7864 0.133833 41.026 0.322417 40.2838L6.08333 0H66.9167L72.6715 40.2838Z" fill="white"/>
</svg>
