<svg width="31" height="31" viewBox="0 0 31 31" fill="none" xmlns="http://www.w3.org/2000/svg">
<g id="super g">
<path id="Shape" d="M15.1037 5.84057C17.2678 5.80727 19.3607 6.61351 20.9432 8.09008L25.2055 3.92216C22.4709 1.35974 18.851 -0.0453416 15.1037 0.00111641C12.3039 0.000469455 9.55906 0.778697 7.17622 2.24877C4.79338 3.71884 2.86647 5.8228 1.61096 8.32535L6.49484 12.1171C7.09201 10.3013 8.24411 8.71881 9.78866 7.59271C11.3332 6.4666 13.1923 5.85375 15.1037 5.84057Z" fill="#EA4335"/>
<path id="Shape_2" d="M29.603 15.44C29.6208 14.4018 29.5135 13.3651 29.2835 12.3525H15.1039V17.9582H23.4281C23.2702 18.941 22.9152 19.8817 22.3843 20.7237C21.8535 21.5658 21.1578 22.2918 20.3392 22.858L25.1054 26.5496C26.5909 25.1155 27.759 23.3858 28.5344 21.4722C29.3099 19.5586 29.6754 17.5036 29.6074 15.44H29.603Z" fill="#4285F4"/>
<path id="Shape_3" d="M6.51233 18.0913C6.18212 17.1298 6.01188 16.1206 6.00841 15.104C6.01443 14.089 6.17856 13.0812 6.49491 12.1167L1.61103 8.32495C0.551758 10.428 0 12.75 0 15.1047C0 17.4595 0.551758 19.7815 1.61103 21.8845L6.51233 18.0913Z" fill="#FBBC05"/>
<path id="Shape_4" d="M15.104 30.2076C18.7829 30.3116 22.3619 29.0025 25.1055 26.5494L20.3393 22.8578C18.7939 23.8938 16.9637 24.4218 15.104 24.3681C13.1942 24.3568 11.3365 23.7443 9.79432 22.6177C8.25219 21.4911 7.10397 19.9075 6.51254 18.0916L1.62866 21.8848C2.88078 24.3862 4.80454 26.4897 7.18451 27.9596C9.56448 29.4296 12.3067 30.208 15.104 30.2076Z" fill="#34A853"/>
</g>
</svg>
