<svg width="26" height="26" viewBox="0 0 26 26" fill="none" xmlns="http://www.w3.org/2000/svg">
<g id="Icon">
<g id="vuesax/outline/heart">
<g id="heart">
<path id="Vector" d="M13 23.4542C12.6641 23.4542 12.3391 23.4108 12.0683 23.3133C7.92996 21.8942 1.35413 16.8567 1.35413 9.41417C1.35413 5.6225 4.41996 2.54584 8.18996 2.54584C10.0208 2.54584 11.7325 3.26084 13 4.53917C14.2675 3.26084 15.9791 2.54584 17.81 2.54584C21.58 2.54584 24.6458 5.63334 24.6458 9.41417C24.6458 16.8675 18.07 21.8942 13.9316 23.3133C13.6608 23.4108 13.3358 23.4542 13 23.4542ZM8.18996 4.17084C5.31913 4.17084 2.97913 6.52167 2.97913 9.41417C2.97913 16.8133 10.0966 20.93 12.5991 21.7858C12.7941 21.8508 13.2166 21.8508 13.4116 21.7858C15.9033 20.93 23.0316 16.8242 23.0316 9.41417C23.0316 6.52167 20.6916 4.17084 17.8208 4.17084C16.1741 4.17084 14.6466 4.94 13.6608 6.2725C13.3575 6.68417 12.6641 6.68417 12.3608 6.2725C11.3533 4.92917 9.83663 4.17084 8.18996 4.17084Z" fill="white"/>
</g>
</g>
</g>
</svg>
