<svg width="29" height="10" viewBox="0 0 29 10" fill="none" xmlns="http://www.w3.org/2000/svg">
<path id="Vector" d="M3.0951 9.99593C2.25906 9.96272 1.57506 9.73396 1.04022 9.30907C0.938151 9.2279 0.694927 8.98453 0.613327 8.88189C0.396445 8.60917 0.248993 8.34376 0.150644 8.04929C-0.15199 7.14282 0.00376495 5.95333 0.596148 4.64788C1.10335 3.53025 1.88599 2.42179 3.25142 0.886571C3.45256 0.660669 4.05153 0 4.05539 0C4.05683 0 4.02419 0.056547 3.9831 0.125405C3.62807 0.720079 3.32429 1.42055 3.1588 2.02696C2.89296 3 2.92503 3.83503 3.25271 4.48253C3.47876 4.92861 3.86628 5.31499 4.30205 5.52858C5.06494 5.90236 6.18185 5.93328 7.54585 5.61905C7.63976 5.59729 12.2932 4.36199 17.8869 2.87388C23.4806 1.38562 28.0581 0.168925 28.0588 0.169927C28.0604 0.171216 15.063 5.73286 8.31589 8.61819C7.24736 9.07501 6.96162 9.19039 6.45929 9.36676C5.17517 9.8177 4.0249 10.0329 3.0951 9.99593Z" fill="white"/>
</svg>
