<svg width="26" height="26" viewBox="0 0 26 26" fill="none" xmlns="http://www.w3.org/2000/svg">
<g id="Discovery">
<path id="Vector" fill-rule="evenodd" clip-rule="evenodd" d="M13 2.16669C7.01691 2.16669 2.16666 7.01693 2.16666 13C2.16666 18.9831 7.01691 23.8334 13 23.8334C18.983 23.8334 23.8333 18.9831 23.8333 13C23.8333 7.01693 18.983 2.16669 13 2.16669ZM13 3.73507C18.1169 3.73507 22.265 7.88313 22.265 13C22.265 18.1169 18.1169 22.265 13 22.265C7.88311 22.265 3.73505 18.1169 3.73505 13C3.73505 7.88313 7.88311 3.73507 13 3.73507ZM16.2591 8.75835L10.9378 10.4236C10.6925 10.5004 10.5004 10.6925 10.4236 10.9378L8.75832 16.2591C8.56928 16.8632 9.13687 17.4307 9.74094 17.2417L15.0622 15.5764C15.3075 15.4996 15.4996 15.3075 15.5764 15.0623L17.2417 9.74096C17.4307 9.1369 16.8632 8.56931 16.2591 8.75835ZM15.2971 10.7018L14.2014 14.2014L10.7018 15.2971L11.7976 11.7976L15.2971 10.7018Z" fill="#152354"/>
</g>
</svg>
